
<svg viewBox="0 0 614 152" version="1.1" xmlns="http://www.w3.org/2000/svg" xmlns:xlink="http://www.w3.org/1999/xlink">
    <g id="Page-1" stroke="none" stroke-width="1" fill="none" fill-rule="evenodd">
        <g id="logo" fill-rule="nonzero">
            <g id="Group">
                <g transform="translate(168.000000, 0.000000)">
                    <polygon id="Path" fill="#ffffff" points="75.374 37.311 54.145 37.311 17.801 74.502 17.801 0.285 0.648 0.285 0.648 120.014 17.801 120.014 17.801 80.954 57.03 120.014 78.769 120.014 36.143 77.048"></polygon>
                    <rect id="Rectangle" fill="#ffffff" x="87.261" y="0.115" width="19.699" height="17.836"></rect>
                    <rect id="Rectangle" fill="#ffffff" x="88.45" y="37.137" width="17.15" height="82.877"></rect>
                    <path d="M151.963,89.787 L151.963,50.385 L174.721,50.385 L174.721,37.137 L151.963,37.137 L151.963,12.177 L134.811,12.177 L134.811,37.137 L118.678,37.137 L118.678,50.385 L134.811,50.385 L134.811,90.465 C134.811,100.431 137.444,108.044 142.709,113.306 C147.973,118.572 155.979,121.204 166.74,121.204 C169.794,121.204 172.737,120.975 175.568,120.525 L176.42,107.447 C173.928,107.787 171.38,107.957 168.777,107.957 C157.569,107.957 151.963,101.901 151.963,89.787 Z" id="Path" fill="#ffffff"></path>
                    <path d="M253.179,40.365 C247.632,36.856 241.235,35.099 233.989,35.099 C227.761,35.099 222.27,36.459 217.517,39.178 C212.759,41.894 209.134,45.741 206.646,50.727 L206.646,0.285 L189.495,0.285 L189.495,120.014 L206.646,120.014 L206.646,105.75 C209.134,110.733 212.759,114.554 217.517,117.212 C222.27,119.873 227.761,121.204 233.989,121.204 C241.124,121.204 247.493,119.392 253.094,115.768 C258.698,112.147 263.058,107.05 266.17,100.483 C269.284,93.92 270.842,86.388 270.842,77.898 C270.842,69.294 269.284,61.762 266.17,55.31 C263.058,48.859 258.726,43.879 253.179,40.365 Z M247.152,99.807 C243.015,105.014 237.271,107.62 229.914,107.62 C222.441,107.62 216.696,105.073 212.679,99.976 C208.658,94.879 206.649,87.638 206.649,78.239 C206.649,68.842 208.658,61.594 212.679,56.504 C216.698,51.406 222.443,48.86 229.914,48.86 C237.388,48.86 243.161,51.378 247.237,56.417 C251.311,61.455 253.348,68.618 253.348,77.9 C253.348,87.299 251.283,94.599 247.152,99.807 Z" id="Shape" fill="#92B1FF"></path>
                    <path d="M318.158,35.1 C312.384,35.1 306.355,36.035 300.07,37.902 C293.788,39.771 288.436,42.234 284.023,45.294 L289.117,57.351 C298.513,51.579 307.909,48.688 317.307,48.688 C323.306,48.688 327.638,50.106 330.3,52.937 C332.957,55.768 334.29,60.352 334.29,66.693 L334.29,71.616 L330.385,71.616 C317.818,71.616 307.937,72.355 300.749,73.823 C293.559,75.3 288.406,77.761 285.294,81.215 C282.18,84.67 280.624,89.395 280.624,95.396 C280.624,100.261 281.897,104.679 284.445,108.639 C286.993,112.607 290.529,115.691 295.058,117.898 C299.585,120.105 304.57,121.21 310.003,121.21 C315.662,121.21 320.617,119.938 324.862,117.387 C329.109,114.841 332.305,111.133 334.458,106.264 L334.458,120.02 L350.932,120.02 L350.932,68.734 C350.932,57.415 348.242,48.977 342.867,43.43 C337.489,37.877 329.253,35.1 318.158,35.1 Z M334.292,85.712 C334.292,92.391 332.311,97.852 328.349,102.096 C324.383,106.345 319.288,108.466 313.065,108.466 C308.535,108.466 304.828,107.139 301.94,104.477 C299.052,101.816 297.611,98.504 297.611,94.54 C297.611,91.03 298.63,88.341 300.668,86.477 C302.705,84.609 306.105,83.278 310.858,82.484 C315.614,81.695 322.407,81.295 331.237,81.295 L334.294,81.295 L334.292,85.712 L334.292,85.712 Z" id="Shape" fill="#92B1FF"></path>
                    <path d="M428.139,37.137 L428.139,50.728 C425.648,45.744 421.995,41.895 417.184,39.179 C412.371,36.46 406.795,35.1 400.456,35.1 C393.208,35.1 386.785,36.829 381.181,40.284 C375.577,43.735 371.187,48.576 368.019,54.805 C364.848,61.03 363.263,68.222 363.263,76.372 C363.263,84.522 364.821,91.715 367.934,97.938 C371.046,104.167 375.434,108.979 381.096,112.373 C386.757,115.77 393.208,117.47 400.456,117.47 C406.91,117.47 412.568,116.085 417.436,113.308 C422.303,110.536 425.928,106.659 428.307,101.677 L428.307,114.754 C428.307,130.484 420.551,138.356 405.04,138.356 C399.266,138.356 393.857,137.591 388.821,136.066 C383.782,134.538 378.546,132.015 373.112,128.506 L367.845,140.904 C372.825,144.41 378.515,147.1 384.913,148.968 C391.308,150.836 398.073,151.77 405.208,151.77 C418.339,151.77 428.275,148.546 435.013,142.09 C441.746,135.638 445.117,126.069 445.117,113.393 L445.117,37.137 L428.139,37.137 L428.139,37.137 Z M421.855,96.578 C417.667,101.446 411.891,103.882 404.533,103.882 C397.172,103.882 391.342,101.446 387.041,96.578 C382.736,91.713 380.587,84.974 380.587,76.37 C380.587,67.765 382.712,61.026 386.957,56.158 C391.201,51.294 397.061,48.858 404.533,48.858 C412.007,48.858 417.806,51.317 421.941,56.245 C426.072,61.168 428.139,67.877 428.139,76.37 C428.139,84.976 426.043,91.713 421.855,96.578 Z" id="Shape" fill="#92B1FF"></path>
                </g>
                <g id="XMLID_2_">
                    <g id="Group">
                        <path d="M109.729,110.08 C109.729,111.03 108.529,112.1 106.809,112.1 C105.089,112.1 103.909,111.03 103.879,110.08 L103.879,87.03 C103.909,86.08 105.089,85.01 106.809,85.01 C108.529,85.01 109.729,86.08 109.729,87.03 L109.729,110.08 Z" id="Path" fill="#92B1FF"></path>
                        <path d="M24.199,55.32 C26.759,58.75 34.669,64.5 58.899,64.66 C83.059,64.5 90.969,58.75 93.529,55.32 C94.099,54.56 94.489,53.82 94.749,53.12 C94.779,53.06 94.799,52.99 94.819,52.93 C94.859,52.83 94.889,52.72 94.919,52.63 C94.949,52.53 94.979,52.43 95.009,52.33 C95.089,52.02 95.139,51.73 95.179,51.46 C95.289,50.7 95.259,50.06 95.209,49.61 C94.319,46.05 92.909,42.69 91.079,39.61 C90.039,37.86 88.849,36.19 87.539,34.63 C86.889,33.85 86.199,33.09 85.489,32.37 C78.699,25.49 69.279,21.21 58.879,21.21 C41.329,21.21 26.599,33.34 22.519,49.66 C22.409,50.7 22.429,52.94 24.199,55.32 Z M8.009,110.08 C8.009,111.03 9.219,112.1 10.939,112.1 C12.639,112.1 13.819,111.06 13.839,110.1 L13.839,87.01 C13.819,86.06 12.639,85.01 10.939,85.01 C9.219,85.01 8.009,86.08 8.009,87.03 L8.009,110.08 Z M103.879,110.08 C103.909,111.03 105.089,112.1 106.809,112.1 C108.529,112.1 109.729,111.03 109.729,110.08 L109.729,87.03 C109.729,86.08 108.529,85.01 106.809,85.01 C105.089,85.01 103.909,86.08 103.879,87.03 L103.879,110.08 Z M117.229,87.03 L117.229,110.08 C117.229,115.34 112.559,119.62 106.809,119.62 C104.929,119.62 103.159,119.12 101.639,118.31 C99.529,121.21 96.129,123.14 92.279,123.14 L25.469,123.14 C21.609,123.14 18.219,121.21 16.109,118.33 C14.569,119.12 12.819,119.62 10.939,119.62 C5.179,119.62 0.509,115.34 0.509,110.08 L0.509,87.03 C0.509,81.77 5.179,77.49 10.939,77.49 C11.959,77.49 12.909,77.67 13.839,77.92 L13.839,58.72 C13.839,55.07 14.339,51.54 15.149,48.14 C15.249,47.6 15.359,47.07 15.499,46.69 L15.539,46.69 C18.829,34.81 26.849,24.89 37.479,19.13 C38.749,8.43 47.859,0.11 58.869,0.11 C69.889,0.11 78.979,8.43 80.269,19.11 C90.899,24.89 98.899,34.81 102.209,46.69 L102.249,46.69 C102.389,47.07 102.499,47.6 102.589,48.14 C103.409,51.54 103.879,55.08 103.879,58.72 L103.879,77.92 C104.809,77.67 105.789,77.49 106.809,77.49 C112.559,77.49 117.229,81.77 117.229,87.03 Z M96.359,111.51 L96.359,110.1 C96.359,110.08 96.359,110.08 96.359,110.08 L96.359,87.03 L96.359,63.12 C89.309,69.01 76.759,72.05 58.899,72.16 C40.989,72.05 28.429,69.01 21.359,63.12 L21.359,86.96 C21.359,86.98 21.389,87.01 21.389,87.03 L21.389,110.08 C21.389,110.1 21.359,110.13 21.359,110.15 L21.359,111.51 C21.359,113.77 23.199,115.61 25.469,115.61 L77.369,115.61 L92.279,115.61 C94.519,115.61 96.359,113.77 96.359,111.51 Z M70.389,15.25 C68.119,11.22 63.809,8.47 58.869,8.47 C53.929,8.47 49.599,11.22 47.339,15.25 C51.029,14.28 54.879,13.69 58.869,13.69 C62.859,13.69 66.719,14.28 70.389,15.25 Z" id="Shape" fill="#000000"></path>
                        <path d="M96.359,110.1 L96.359,111.51 C96.359,113.77 94.519,115.61 92.279,115.61 L77.369,115.61 L25.469,115.61 C23.199,115.61 21.359,113.77 21.359,111.51 L21.359,110.15 C21.359,110.13 21.389,110.1 21.389,110.08 L21.389,87.03 C21.389,87.01 21.359,86.98 21.359,86.96 L21.359,63.12 C28.429,69.01 40.989,72.05 58.899,72.16 C76.759,72.05 89.309,69.01 96.359,63.12 L96.359,87.03 L96.359,110.08 C96.359,110.08 96.359,110.08 96.359,110.1 Z M86.769,101.47 L86.769,86.19 C86.769,80.46 82.559,75.81 77.369,75.81 L58.899,75.81 L40.359,75.81 C35.189,75.81 30.969,80.46 30.969,86.19 L30.969,101.47 C30.969,107.2 35.189,111.85 40.359,111.85 L77.369,111.85 C82.559,111.85 86.769,107.2 86.769,101.47 Z" id="Shape" fill="#FFFFFF"></path>
                        <path d="M95.199,49.61 C94.309,46.05 92.909,42.69 91.079,39.61 C92.909,42.69 94.319,46.05 95.209,49.61 C95.259,50.06 95.289,50.7 95.179,51.46 C95.289,50.69 95.259,50.06 95.199,49.61 Z" id="Path" fill="#92B1FF"></path>
                        <path d="M94.919,52.63 C94.949,52.53 94.979,52.43 95.009,52.33 C94.979,52.43 94.949,52.53 94.919,52.63 Z" id="Path" fill="#92B1FF"></path>
                        <path d="M85.489,32.37 C86.199,33.09 86.889,33.85 87.539,34.63 C86.879,33.85 86.199,33.09 85.489,32.37 Z" id="Path" fill="#92B1FF"></path>
                        <path d="M58.879,21.21 C69.279,21.21 78.699,25.49 85.489,32.37 C86.199,33.09 86.879,33.85 87.539,34.63 C88.849,36.19 90.039,37.86 91.079,39.61 C92.909,42.69 94.309,46.05 95.199,49.61 C95.259,50.06 95.289,50.69 95.179,51.46 C95.139,51.73 95.089,52.02 95.009,52.33 C94.979,52.43 94.949,52.53 94.919,52.63 C94.889,52.72 94.859,52.83 94.819,52.93 C94.799,52.99 94.779,53.06 94.749,53.12 C94.489,53.82 94.099,54.56 93.529,55.32 C90.969,58.75 83.059,64.5 58.899,64.66 C34.669,64.5 26.759,58.75 24.199,55.32 C22.429,52.94 22.409,50.7 22.519,49.66 C26.599,33.34 41.329,21.21 58.879,21.21 Z M54.519,56.5 C54.519,58.9 56.469,60.85 58.869,60.85 C61.279,60.85 63.199,58.9 63.199,56.5 C63.199,54.12 61.279,52.17 58.869,52.17 C56.469,52.17 54.519,54.12 54.519,56.5 Z" id="Shape" fill="#92B1FF"></path>
                        <path d="M80.089,98.16 L80.089,101.47 C80.089,103.46 78.839,105.16 77.369,105.16 L40.359,105.16 C38.879,105.16 37.659,103.46 37.659,101.47 L37.659,98.16 C39.129,98.91 40.759,99.38 42.509,99.38 L75.219,99.38 C76.979,99.38 78.609,98.91 80.089,98.16 Z" id="Path" fill="#FFFFFF"></path>
                        <path d="M58.869,82.5 L77.159,82.5 C77.809,82.77 78.379,83.17 78.869,83.68 C78.989,83.8 79.109,83.94 79.219,84.08 C79.539,84.49 79.809,84.96 80.019,85.47 C80.069,85.69 80.089,85.94 80.089,86.19 L80.089,90.02 C79.639,91.18 78.849,92.14 77.849,92.77 C77.079,93.25 76.179,93.53 75.219,93.53 L58.869,93.53 L58.869,91.36 C60.849,91.36 62.429,89.77 62.429,87.8 C62.429,85.83 60.849,84.24 58.869,84.24 L58.869,82.5 Z" id="Path" fill="#92B1FF"></path>
                        <path d="M75.219,93.53 C76.179,93.53 77.079,93.25 77.849,92.77 C77.079,93.26 76.179,93.54 75.219,93.54 L42.509,93.54 C41.559,93.54 40.659,93.27 39.889,92.77 C40.659,93.25 41.559,93.53 42.509,93.53 L58.869,93.53 L75.219,93.53 Z" id="Path" fill="#92B1FF"></path>
                        <path d="M58.869,52.17 C61.279,52.17 63.199,54.12 63.199,56.5 C63.199,58.9 61.279,60.85 58.869,60.85 C56.469,60.85 54.519,58.9 54.519,56.5 C54.519,54.12 56.469,52.17 58.869,52.17 Z" id="Path" fill="#000000"></path>
                        <path d="M58.869,84.24 C60.849,84.24 62.429,85.83 62.429,87.8 C62.429,89.77 60.849,91.36 58.869,91.36 C56.899,91.36 55.289,89.77 55.289,87.8 C55.289,85.83 56.899,84.24 58.869,84.24 Z" id="Path" fill="#000000"></path>
                        <path d="M55.289,87.8 C55.289,89.77 56.899,91.36 58.869,91.36 L58.869,93.53 L42.509,93.53 C41.559,93.53 40.659,93.25 39.889,92.77 C39.559,92.56 39.249,92.31 38.969,92.04 C38.879,91.95 38.779,91.85 38.699,91.75 C38.519,91.55 38.359,91.34 38.219,91.11 C37.989,90.77 37.809,90.41 37.659,90.02 L37.659,86.19 C37.659,86.06 37.659,85.94 37.669,85.82 C37.669,85.7 37.679,85.58 37.709,85.47 C37.849,85.13 38.019,84.81 38.209,84.51 C38.799,83.61 39.609,82.9 40.559,82.5 L58.869,82.5 L58.869,84.24 C56.899,84.24 55.289,85.83 55.289,87.8 Z" id="Path" fill="#92B1FF"></path>
                        <path d="M38.699,91.75 C38.779,91.85 38.879,91.95 38.969,92.04 C38.879,91.95 38.779,91.85 38.699,91.75 Z" id="Path" fill="#92B1FF"></path>
                        <path d="M38.219,91.11 C38.359,91.34 38.519,91.55 38.699,91.75 C38.519,91.55 38.359,91.34 38.219,91.11 Z" id="Path" fill="#92B1FF"></path>
                        <path d="M38.209,84.51 C38.019,84.81 37.849,85.13 37.709,85.47 C37.679,85.58 37.669,85.7 37.669,85.82 C37.669,85.7 37.679,85.58 37.699,85.47 C37.839,85.13 38.009,84.81 38.209,84.51 Z" id="Path" fill="#92B1FF"></path>
                        <path d="M37.659,90.02 C37.809,90.41 37.989,90.77 38.219,91.11 C38.359,91.34 38.519,91.55 38.699,91.75 C38.779,91.85 38.879,91.95 38.969,92.04 C39.249,92.31 39.559,92.56 39.889,92.77 C40.659,93.27 41.559,93.54 42.509,93.54 L75.219,93.54 C76.179,93.54 77.079,93.26 77.849,92.77 C78.849,92.14 79.639,91.18 80.089,90.02 L80.089,86.19 C80.089,85.94 80.069,85.69 80.019,85.47 C79.819,84.96 79.549,84.49 79.219,84.08 C79.109,83.93 78.989,83.8 78.869,83.68 C78.379,83.17 77.809,82.77 77.159,82.5 L58.869,82.5 L40.559,82.5 C39.609,82.9 38.799,83.61 38.209,84.51 C38.009,84.81 37.839,85.13 37.699,85.47 C37.679,85.58 37.669,85.7 37.669,85.82 C37.659,85.94 37.659,86.06 37.659,86.19 L37.659,90.02 L37.659,90.02 Z M86.769,86.19 L86.769,101.47 C86.769,107.2 82.559,111.85 77.369,111.85 L40.359,111.85 C35.189,111.85 30.969,107.2 30.969,101.47 L30.969,86.19 C30.969,80.46 35.189,75.81 40.359,75.81 L58.899,75.81 L77.369,75.81 C82.559,75.81 86.769,80.46 86.769,86.19 Z M80.089,101.47 L80.089,98.16 C78.609,98.91 76.979,99.38 75.219,99.38 L42.509,99.38 C40.759,99.38 39.129,98.91 37.659,98.16 L37.659,101.47 C37.659,103.46 38.879,105.16 40.359,105.16 L77.369,105.16 C78.839,105.16 80.089,103.46 80.089,101.47 Z" id="Shape" fill="#000000"></path>
                        <path d="M13.839,87.01 L13.839,110.1 C13.819,111.06 12.639,112.1 10.939,112.1 C9.219,112.1 8.009,111.03 8.009,110.08 L8.009,87.03 C8.009,86.08 9.219,85.01 10.939,85.01 C12.639,85.01 13.819,86.06 13.839,87.01 Z" id="Path" fill="#92B1FF"></path>
                    </g>
                </g>
            </g>
        </g>
    </g>
</svg>